<mxfile host="app.diagrams.net" agent="Mozilla/5.0 (Windows NT 10.0; Win64; x64) AppleWebKit/537.36 (KHTML, like Gecko) Chrome/130.0.0.0 Safari/537.36" version="24.8.3">
  <diagram id="R2lEEEUBdFMjLlhIrx00" name="Page-1">
    <mxGraphModel dx="792" dy="1105" grid="1" gridSize="10" guides="1" tooltips="1" connect="1" arrows="1" fold="1" page="1" pageScale="1" pageWidth="850" pageHeight="1100" math="0" shadow="0" extFonts="Permanent Marker^https://fonts.googleapis.com/css?family=Permanent+Marker">
      <root>
        <mxCell id="0" />
        <mxCell id="1" parent="0" />
        <mxCell id="OOtP1Q8lXClUcfG9O1Z--1" value="Студент" style="swimlane;fontStyle=0;childLayout=stackLayout;horizontal=1;startSize=30;horizontalStack=0;resizeParent=1;resizeParentMax=0;resizeLast=0;collapsible=1;marginBottom=0;whiteSpace=wrap;html=1;fillColor=#60a917;strokeColor=#2D7600;fontColor=#ffffff;strokeWidth=1;swimlaneLine=1;glass=0;rounded=0;shadow=0;" parent="1" vertex="1">
          <mxGeometry x="350" y="315" width="140" height="180" as="geometry" />
        </mxCell>
        <mxCell id="OOtP1Q8lXClUcfG9O1Z--2" value="id" style="text;align=left;verticalAlign=middle;spacingLeft=4;spacingRight=4;overflow=hidden;points=[[0,0.5],[1,0.5]];portConstraint=eastwest;rotatable=0;whiteSpace=wrap;html=1;strokeColor=#60a917;fillColor=default;" parent="OOtP1Q8lXClUcfG9O1Z--1" vertex="1">
          <mxGeometry y="30" width="140" height="30" as="geometry" />
        </mxCell>
        <mxCell id="OOtP1Q8lXClUcfG9O1Z--3" value="Фамилия" style="text;strokeColor=#60a917;fillColor=default;align=left;verticalAlign=middle;spacingLeft=4;spacingRight=4;overflow=hidden;points=[[0,0.5],[1,0.5]];portConstraint=eastwest;rotatable=0;whiteSpace=wrap;html=1;" parent="OOtP1Q8lXClUcfG9O1Z--1" vertex="1">
          <mxGeometry y="60" width="140" height="30" as="geometry" />
        </mxCell>
        <mxCell id="OOtP1Q8lXClUcfG9O1Z--6" value="Имя" style="text;strokeColor=#60a917;fillColor=default;align=left;verticalAlign=middle;spacingLeft=4;spacingRight=4;overflow=hidden;points=[[0,0.5],[1,0.5]];portConstraint=eastwest;rotatable=0;whiteSpace=wrap;html=1;" parent="OOtP1Q8lXClUcfG9O1Z--1" vertex="1">
          <mxGeometry y="90" width="140" height="30" as="geometry" />
        </mxCell>
        <mxCell id="OOtP1Q8lXClUcfG9O1Z--5" value="Отчество" style="text;strokeColor=#60a917;fillColor=default;align=left;verticalAlign=middle;spacingLeft=4;spacingRight=4;overflow=hidden;points=[[0,0.5],[1,0.5]];portConstraint=eastwest;rotatable=0;whiteSpace=wrap;html=1;" parent="OOtP1Q8lXClUcfG9O1Z--1" vertex="1">
          <mxGeometry y="120" width="140" height="30" as="geometry" />
        </mxCell>
        <mxCell id="OOtP1Q8lXClUcfG9O1Z--4" value="Группа" style="text;strokeColor=#60a917;fillColor=default;align=left;verticalAlign=middle;spacingLeft=4;spacingRight=4;overflow=hidden;points=[[0,0.5],[1,0.5]];portConstraint=eastwest;rotatable=0;whiteSpace=wrap;html=1;" parent="OOtP1Q8lXClUcfG9O1Z--1" vertex="1">
          <mxGeometry y="150" width="140" height="30" as="geometry" />
        </mxCell>
        <mxCell id="OOtP1Q8lXClUcfG9O1Z--7" value="Ведомость" style="swimlane;fontStyle=0;childLayout=stackLayout;horizontal=1;startSize=30;horizontalStack=0;resizeParent=1;resizeParentMax=0;resizeLast=0;collapsible=1;marginBottom=0;whiteSpace=wrap;html=1;fillColor=#60a917;strokeColor=#2D7600;fontColor=#ffffff;strokeWidth=1;swimlaneLine=1;glass=0;rounded=0;shadow=0;" parent="1" vertex="1">
          <mxGeometry x="580" y="445" width="140" height="150" as="geometry" />
        </mxCell>
        <mxCell id="OOtP1Q8lXClUcfG9O1Z--8" value="id_студент" style="text;align=left;verticalAlign=middle;spacingLeft=4;spacingRight=4;overflow=hidden;points=[[0,0.5],[1,0.5]];portConstraint=eastwest;rotatable=0;whiteSpace=wrap;html=1;strokeColor=#60a917;fillColor=default;" parent="OOtP1Q8lXClUcfG9O1Z--7" vertex="1">
          <mxGeometry y="30" width="140" height="30" as="geometry" />
        </mxCell>
        <mxCell id="OOtP1Q8lXClUcfG9O1Z--9" value="id_план" style="text;strokeColor=#60a917;fillColor=default;align=left;verticalAlign=middle;spacingLeft=4;spacingRight=4;overflow=hidden;points=[[0,0.5],[1,0.5]];portConstraint=eastwest;rotatable=0;whiteSpace=wrap;html=1;" parent="OOtP1Q8lXClUcfG9O1Z--7" vertex="1">
          <mxGeometry y="60" width="140" height="30" as="geometry" />
        </mxCell>
        <mxCell id="OOtP1Q8lXClUcfG9O1Z--10" value="Оценка" style="text;strokeColor=#60a917;fillColor=default;align=left;verticalAlign=middle;spacingLeft=4;spacingRight=4;overflow=hidden;points=[[0,0.5],[1,0.5]];portConstraint=eastwest;rotatable=0;whiteSpace=wrap;html=1;" parent="OOtP1Q8lXClUcfG9O1Z--7" vertex="1">
          <mxGeometry y="90" width="140" height="30" as="geometry" />
        </mxCell>
        <mxCell id="OOtP1Q8lXClUcfG9O1Z--11" value="Дата" style="text;strokeColor=#60a917;fillColor=default;align=left;verticalAlign=middle;spacingLeft=4;spacingRight=4;overflow=hidden;points=[[0,0.5],[1,0.5]];portConstraint=eastwest;rotatable=0;whiteSpace=wrap;html=1;" parent="OOtP1Q8lXClUcfG9O1Z--7" vertex="1">
          <mxGeometry y="120" width="140" height="30" as="geometry" />
        </mxCell>
        <mxCell id="OOtP1Q8lXClUcfG9O1Z--13" value="" style="edgeStyle=entityRelationEdgeStyle;fontSize=12;html=1;endArrow=ERoneToMany;rounded=0;entryX=1;entryY=0.25;entryDx=0;entryDy=0;exitX=0;exitY=0.5;exitDx=0;exitDy=0;" parent="1" source="OOtP1Q8lXClUcfG9O1Z--8" target="OOtP1Q8lXClUcfG9O1Z--1" edge="1">
          <mxGeometry width="100" height="100" relative="1" as="geometry">
            <mxPoint x="630" y="305" as="sourcePoint" />
            <mxPoint x="420" y="415" as="targetPoint" />
          </mxGeometry>
        </mxCell>
        <mxCell id="OOtP1Q8lXClUcfG9O1Z--18" value="Учебный_план" style="swimlane;fontStyle=0;childLayout=stackLayout;horizontal=1;startSize=30;horizontalStack=0;resizeParent=1;resizeParentMax=0;resizeLast=0;collapsible=1;marginBottom=0;whiteSpace=wrap;html=1;fillColor=#60a917;strokeColor=#2D7600;fontColor=#ffffff;strokeWidth=1;swimlaneLine=1;glass=0;rounded=0;shadow=0;" parent="1" vertex="1">
          <mxGeometry x="350" y="605" width="140" height="180" as="geometry" />
        </mxCell>
        <mxCell id="OOtP1Q8lXClUcfG9O1Z--20" value="id" style="text;strokeColor=#60a917;fillColor=default;align=left;verticalAlign=middle;spacingLeft=4;spacingRight=4;overflow=hidden;points=[[0,0.5],[1,0.5]];portConstraint=eastwest;rotatable=0;whiteSpace=wrap;html=1;" parent="OOtP1Q8lXClUcfG9O1Z--18" vertex="1">
          <mxGeometry y="30" width="140" height="30" as="geometry" />
        </mxCell>
        <mxCell id="OOtP1Q8lXClUcfG9O1Z--21" value="id_дисциплина" style="text;strokeColor=#60a917;fillColor=default;align=left;verticalAlign=middle;spacingLeft=4;spacingRight=4;overflow=hidden;points=[[0,0.5],[1,0.5]];portConstraint=eastwest;rotatable=0;whiteSpace=wrap;html=1;" parent="OOtP1Q8lXClUcfG9O1Z--18" vertex="1">
          <mxGeometry y="60" width="140" height="30" as="geometry" />
        </mxCell>
        <mxCell id="OOtP1Q8lXClUcfG9O1Z--22" value="id_преподаватель" style="text;strokeColor=#60a917;fillColor=default;align=left;verticalAlign=middle;spacingLeft=4;spacingRight=4;overflow=hidden;points=[[0,0.5],[1,0.5]];portConstraint=eastwest;rotatable=0;whiteSpace=wrap;html=1;" parent="OOtP1Q8lXClUcfG9O1Z--18" vertex="1">
          <mxGeometry y="90" width="140" height="30" as="geometry" />
        </mxCell>
        <mxCell id="OOtP1Q8lXClUcfG9O1Z--23" value="Семестр" style="text;strokeColor=#60a917;fillColor=default;align=left;verticalAlign=middle;spacingLeft=4;spacingRight=4;overflow=hidden;points=[[0,0.5],[1,0.5]];portConstraint=eastwest;rotatable=0;whiteSpace=wrap;html=1;" parent="OOtP1Q8lXClUcfG9O1Z--18" vertex="1">
          <mxGeometry y="120" width="140" height="30" as="geometry" />
        </mxCell>
        <mxCell id="OOtP1Q8lXClUcfG9O1Z--24" value="Количество_часов" style="text;strokeColor=#60a917;fillColor=default;align=left;verticalAlign=middle;spacingLeft=4;spacingRight=4;overflow=hidden;points=[[0,0.5],[1,0.5]];portConstraint=eastwest;rotatable=0;whiteSpace=wrap;html=1;" parent="OOtP1Q8lXClUcfG9O1Z--18" vertex="1">
          <mxGeometry y="150" width="140" height="30" as="geometry" />
        </mxCell>
        <mxCell id="OOtP1Q8lXClUcfG9O1Z--25" value="" style="edgeStyle=entityRelationEdgeStyle;fontSize=12;html=1;endArrow=ERoneToMany;rounded=0;exitX=0;exitY=0.5;exitDx=0;exitDy=0;entryX=1;entryY=0.25;entryDx=0;entryDy=0;" parent="1" source="OOtP1Q8lXClUcfG9O1Z--9" target="OOtP1Q8lXClUcfG9O1Z--18" edge="1">
          <mxGeometry width="100" height="100" relative="1" as="geometry">
            <mxPoint x="320" y="515" as="sourcePoint" />
            <mxPoint x="420" y="415" as="targetPoint" />
          </mxGeometry>
        </mxCell>
        <mxCell id="OOtP1Q8lXClUcfG9O1Z--26" value="Дисциплина" style="swimlane;fontStyle=0;childLayout=stackLayout;horizontal=1;startSize=30;horizontalStack=0;resizeParent=1;resizeParentMax=0;resizeLast=0;collapsible=1;marginBottom=0;whiteSpace=wrap;html=1;fillColor=#60a917;strokeColor=#2D7600;fontColor=#ffffff;strokeWidth=1;swimlaneLine=1;glass=0;rounded=0;shadow=0;" parent="1" vertex="1">
          <mxGeometry x="580" y="675" width="140" height="90" as="geometry" />
        </mxCell>
        <mxCell id="OOtP1Q8lXClUcfG9O1Z--27" value="id" style="text;align=left;verticalAlign=middle;spacingLeft=4;spacingRight=4;overflow=hidden;points=[[0,0.5],[1,0.5]];portConstraint=eastwest;rotatable=0;whiteSpace=wrap;html=1;strokeColor=#60a917;fillColor=default;" parent="OOtP1Q8lXClUcfG9O1Z--26" vertex="1">
          <mxGeometry y="30" width="140" height="30" as="geometry" />
        </mxCell>
        <mxCell id="OOtP1Q8lXClUcfG9O1Z--28" value="Название" style="text;strokeColor=#60a917;fillColor=default;align=left;verticalAlign=middle;spacingLeft=4;spacingRight=4;overflow=hidden;points=[[0,0.5],[1,0.5]];portConstraint=eastwest;rotatable=0;whiteSpace=wrap;html=1;" parent="OOtP1Q8lXClUcfG9O1Z--26" vertex="1">
          <mxGeometry y="60" width="140" height="30" as="geometry" />
        </mxCell>
        <mxCell id="OOtP1Q8lXClUcfG9O1Z--31" value="" style="edgeStyle=entityRelationEdgeStyle;fontSize=12;html=1;endArrow=ERoneToMany;rounded=0;exitX=1;exitY=0.5;exitDx=0;exitDy=0;entryX=0;entryY=0.5;entryDx=0;entryDy=0;" parent="1" source="OOtP1Q8lXClUcfG9O1Z--21" target="OOtP1Q8lXClUcfG9O1Z--27" edge="1">
          <mxGeometry width="100" height="100" relative="1" as="geometry">
            <mxPoint x="320" y="515" as="sourcePoint" />
            <mxPoint x="420" y="415" as="targetPoint" />
          </mxGeometry>
        </mxCell>
        <mxCell id="OOtP1Q8lXClUcfG9O1Z--32" value="Преподаватель" style="swimlane;fontStyle=0;childLayout=stackLayout;horizontal=1;startSize=30;horizontalStack=0;resizeParent=1;resizeParentMax=0;resizeLast=0;collapsible=1;marginBottom=0;whiteSpace=wrap;html=1;fillColor=#60a917;strokeColor=#2D7600;fontColor=#ffffff;strokeWidth=1;swimlaneLine=1;glass=0;rounded=0;shadow=0;" parent="1" vertex="1">
          <mxGeometry x="130" y="390" width="140" height="210" as="geometry" />
        </mxCell>
        <mxCell id="OOtP1Q8lXClUcfG9O1Z--33" value="id" style="text;align=left;verticalAlign=middle;spacingLeft=4;spacingRight=4;overflow=hidden;points=[[0,0.5],[1,0.5]];portConstraint=eastwest;rotatable=0;whiteSpace=wrap;html=1;strokeColor=#60a917;fillColor=default;" parent="OOtP1Q8lXClUcfG9O1Z--32" vertex="1">
          <mxGeometry y="30" width="140" height="30" as="geometry" />
        </mxCell>
        <mxCell id="OOtP1Q8lXClUcfG9O1Z--34" value="Фамилия" style="text;strokeColor=#60a917;fillColor=default;align=left;verticalAlign=middle;spacingLeft=4;spacingRight=4;overflow=hidden;points=[[0,0.5],[1,0.5]];portConstraint=eastwest;rotatable=0;whiteSpace=wrap;html=1;" parent="OOtP1Q8lXClUcfG9O1Z--32" vertex="1">
          <mxGeometry y="60" width="140" height="30" as="geometry" />
        </mxCell>
        <mxCell id="OOtP1Q8lXClUcfG9O1Z--35" value="Имя" style="text;strokeColor=#60a917;fillColor=default;align=left;verticalAlign=middle;spacingLeft=4;spacingRight=4;overflow=hidden;points=[[0,0.5],[1,0.5]];portConstraint=eastwest;rotatable=0;whiteSpace=wrap;html=1;" parent="OOtP1Q8lXClUcfG9O1Z--32" vertex="1">
          <mxGeometry y="90" width="140" height="30" as="geometry" />
        </mxCell>
        <mxCell id="OOtP1Q8lXClUcfG9O1Z--36" value="Отчество" style="text;strokeColor=#60a917;fillColor=default;align=left;verticalAlign=middle;spacingLeft=4;spacingRight=4;overflow=hidden;points=[[0,0.5],[1,0.5]];portConstraint=eastwest;rotatable=0;whiteSpace=wrap;html=1;" parent="OOtP1Q8lXClUcfG9O1Z--32" vertex="1">
          <mxGeometry y="120" width="140" height="30" as="geometry" />
        </mxCell>
        <mxCell id="OOtP1Q8lXClUcfG9O1Z--37" value="Кафедра" style="text;strokeColor=#60a917;fillColor=default;align=left;verticalAlign=middle;spacingLeft=4;spacingRight=4;overflow=hidden;points=[[0,0.5],[1,0.5]];portConstraint=eastwest;rotatable=0;whiteSpace=wrap;html=1;" parent="OOtP1Q8lXClUcfG9O1Z--32" vertex="1">
          <mxGeometry y="150" width="140" height="30" as="geometry" />
        </mxCell>
        <mxCell id="OOtP1Q8lXClUcfG9O1Z--40" value="Телефон" style="text;strokeColor=#60a917;fillColor=default;align=left;verticalAlign=middle;spacingLeft=4;spacingRight=4;overflow=hidden;points=[[0,0.5],[1,0.5]];portConstraint=eastwest;rotatable=0;whiteSpace=wrap;html=1;" parent="OOtP1Q8lXClUcfG9O1Z--32" vertex="1">
          <mxGeometry y="180" width="140" height="30" as="geometry" />
        </mxCell>
        <mxCell id="OOtP1Q8lXClUcfG9O1Z--41" value="" style="edgeStyle=entityRelationEdgeStyle;fontSize=12;html=1;endArrow=ERoneToMany;rounded=0;exitX=0;exitY=0.5;exitDx=0;exitDy=0;entryX=1;entryY=0.5;entryDx=0;entryDy=0;" parent="1" source="OOtP1Q8lXClUcfG9O1Z--22" target="OOtP1Q8lXClUcfG9O1Z--33" edge="1">
          <mxGeometry width="100" height="100" relative="1" as="geometry">
            <mxPoint x="320" y="515" as="sourcePoint" />
            <mxPoint x="420" y="415" as="targetPoint" />
          </mxGeometry>
        </mxCell>
      </root>
    </mxGraphModel>
  </diagram>
</mxfile>
